<svg xmlns="http://www.w3.org/2000/svg" width="133.888" height="57.206" viewBox="0 0 133.888 57.206"><defs><style>.a{fill:#00b6ff;}</style></defs><g transform="translate(0 0)"><path class="a" d="M4959.609,4657.477l-5.069-1.949V4645l5.069,1.949Z" transform="translate(-4954.54 -4617.983)"/><g transform="translate(0.074 50.619)"><path d="M4954.764,4723.476l0-6.383h.662v2.756h3.3v-2.757h.662l0,6.384h-.662v-3l-3.3,0,0,3Z" transform="translate(-4954.764 -4717.02)"/><path d="M5002.031,4716.869a3.545,3.545,0,0,1,2.438.958,3.262,3.262,0,0,1,.736,1.04,3.154,3.154,0,0,1,0,2.55,3.3,3.3,0,0,1-.737,1.042,3.469,3.469,0,0,1-1.1.7,3.518,3.518,0,0,1-1.341.255,3.492,3.492,0,0,1-2.43-.962,3.383,3.383,0,0,1-.741-1.042,3.113,3.113,0,0,1,0-2.55,3.332,3.332,0,0,1,.741-1.04,3.543,3.543,0,0,1,1.093-.7A3.492,3.492,0,0,1,5002.031,4716.869Zm0,5.92a2.771,2.771,0,0,0,1.076-.21,2.912,2.912,0,0,0,.886-.571,2.676,2.676,0,0,0,.6-.84,2.494,2.494,0,0,0,0-2.045,2.675,2.675,0,0,0-.6-.84,2.892,2.892,0,0,0-.885-.572,2.766,2.766,0,0,0-1.076-.211,2.732,2.732,0,0,0-1.072.209,2.906,2.906,0,0,0-.882.571,2.669,2.669,0,0,0-.6.84,2.489,2.489,0,0,0,0,2.045,2.672,2.672,0,0,0,.6.841,2.932,2.932,0,0,0,.881.571A2.735,2.735,0,0,0,5002.028,4722.789Z" transform="translate(-4984.194 -4716.869)"/><path d="M5049.3,4723.526l0-6.383h.637l2.274,5.407,2.28-5.405h.637l0,6.383h-.662l0-4.6q-.489,1.151-.982,2.31t-.966,2.292h-.613l-1.943-4.6,0,4.6Z" transform="translate(-5018.257 -4717.053)"/><path d="M5097.81,4723.552l0-6.384,3.3,0v.629h-2.641v2.128h2.145v.63h-2.145v2.368h2.642v.629Z" transform="translate(-5050.833 -4717.07)"/><path d="M5179.368,4722.966v.629h-3.3l0-6.383h.662l0,5.755Z" transform="translate(-5103.388 -4717.098)"/><path d="M5215.465,4716.981a3.548,3.548,0,0,1,2.438.958,3.266,3.266,0,0,1,.735,1.039,3.151,3.151,0,0,1,0,2.55,3.311,3.311,0,0,1-.737,1.042,3.457,3.457,0,0,1-1.1.7,3.534,3.534,0,0,1-1.342.256,3.494,3.494,0,0,1-1.336-.258,3.456,3.456,0,0,1-1.093-.7,3.344,3.344,0,0,1-.74-1.043,3.109,3.109,0,0,1,0-2.55,3.323,3.323,0,0,1,.742-1.039,3.521,3.521,0,0,1,2.43-.955Zm0,5.92a2.771,2.771,0,0,0,1.076-.21,2.927,2.927,0,0,0,.887-.571,2.675,2.675,0,0,0,.6-.84,2.489,2.489,0,0,0,0-2.045,2.667,2.667,0,0,0-.6-.84,2.913,2.913,0,0,0-.886-.572,2.847,2.847,0,0,0-2.148,0,2.924,2.924,0,0,0-.881.571,2.677,2.677,0,0,0-.6.84,2.489,2.489,0,0,0,0,2.045,2.671,2.671,0,0,0,.6.841,2.928,2.928,0,0,0,.881.572A2.735,2.735,0,0,0,5215.462,4722.9Z" transform="translate(-5127.536 -4716.944)"/><path d="M5262.732,4717.258l2.613,6.385h-.728l-.894-2.2h-2.235q-.208.538-.427,1.093t-.427,1.1h-.72l2.5-6.382Zm-1,3.56h1.747c-.077-.182-.152-.36-.223-.534s-.144-.348-.215-.521-.145-.353-.219-.535-.153-.375-.236-.58Z" transform="translate(-5159.702 -4717.13)"/><path d="M5305.7,4723.661l0-6.383h.563l3.178,3.139v-3.138h.662l0,6.383h-.662v-2.343l-3.079-3.024,0,5.365Z" transform="translate(-5190.448 -4717.144)"/><path d="M5351.262,4719.925a3.425,3.425,0,0,1,1.515.68,1.494,1.494,0,0,1,.538,1.185,1.426,1.426,0,0,1-.2.761,1.736,1.736,0,0,1-.53.542,2.418,2.418,0,0,1-.762.327,3.736,3.736,0,0,1-.9.107,3.008,3.008,0,0,1-.791-.1,3.559,3.559,0,0,1-.6-.216,2.177,2.177,0,0,1-.4-.232c-.1-.074-.154-.12-.17-.136l.448-.48a1.405,1.405,0,0,0,.144.112,1.949,1.949,0,0,0,.327.182,2.891,2.891,0,0,0,.492.17,2.468,2.468,0,0,0,.625.075,2.619,2.619,0,0,0,.658-.078,1.775,1.775,0,0,0,.525-.224,1.068,1.068,0,0,0,.348-.352.88.88,0,0,0,.125-.464.96.96,0,0,0-.459-.8,3.666,3.666,0,0,0-1.345-.518v.008a2.462,2.462,0,0,1-1.275-.634,1.542,1.542,0,0,1-.268-1.78,1.694,1.694,0,0,1,.456-.542,2.152,2.152,0,0,1,.667-.347,2.554,2.554,0,0,1,.795-.124,3.2,3.2,0,0,1,.873.138,2.368,2.368,0,0,1,.824.41l-.406.472a3.832,3.832,0,0,0-.642-.295,1.883,1.883,0,0,0-.6-.095,2.026,2.026,0,0,0-.621.087,1.393,1.393,0,0,0-.464.239,1.007,1.007,0,0,0-.389.815.806.806,0,0,0,.111.431.945.945,0,0,0,.307.306,2,2,0,0,0,.463.212A5.73,5.73,0,0,0,5351.262,4719.925Z" transform="translate(-5219.504 -4716.992)"/></g><path d="M5234.729,4564.07h8.352v40.418h-8.352Z" transform="translate(-5142.713 -4563.631)"/><g transform="translate(9.894)"><path d="M4996.639,4566.412q6.371,0,10.141,2.481a8.267,8.267,0,0,1,3.768,7.39,9.6,9.6,0,0,1-4.877,8.7,13.128,13.128,0,0,1,4.988,3.762,8.421,8.421,0,0,1,1.829,5.363,11.308,11.308,0,0,1-1.191,5.416,9.88,9.88,0,0,1-3.214,3.576,13.979,13.979,0,0,1-4.572,1.974,22.418,22.418,0,0,1-5.265.614h-13.577v-39.273Zm.941,16.061a4.282,4.282,0,0,0,3.519-1.387,4.839,4.839,0,0,0,1.137-3.148,3.5,3.5,0,0,0-1.414-3.042,6.391,6.391,0,0,0-3.8-1.013H4992.7v8.59Zm.278,16.008a8.956,8.956,0,0,0,4.488-1.04,3.553,3.553,0,0,0,1.829-3.335,3.267,3.267,0,0,0-1-2.588,5.637,5.637,0,0,0-2.577-1.227,15.319,15.319,0,0,0-3.3-.348h-4.6v8.538Z" transform="translate(-4984.669 -4565.204)"/><path d="M5172.247,4573.4a32.707,32.707,0,0,0-4.925-2.087,15.079,15.079,0,0,0-4.694-.823,7.568,7.568,0,0,0-4.262,1.043,3.519,3.519,0,0,0-1.556,3.131,3.445,3.445,0,0,0,1.181,2.553,11.389,11.389,0,0,0,3.053,2q1.871.879,3.888,1.592a28.13,28.13,0,0,1,4.781,2.225,11.183,11.183,0,0,1,3.8,3.68,11.3,11.3,0,0,1,1.5,6.177,10.481,10.481,0,0,1-1.67,5.711,11.983,11.983,0,0,1-4.9,4.256,17.594,17.594,0,0,1-7.949,1.62,27.7,27.7,0,0,1-7.4-1.044,24.152,24.152,0,0,1-7.114-3.295l3.687-6.205a20.351,20.351,0,0,0,5.011,2.526,15.521,15.521,0,0,0,5.068.988,11.578,11.578,0,0,0,3.024-.412,5.645,5.645,0,0,0,2.535-1.4,3.673,3.673,0,0,0,1.008-2.746,3.884,3.884,0,0,0-1.814-3.158,17.339,17.339,0,0,0-4.349-2.279q-1.958-.713-4.032-1.648a20.876,20.876,0,0,1-3.888-2.278,10.507,10.507,0,0,1-2.937-3.35,9.92,9.92,0,0,1-1.123-4.915,11.119,11.119,0,0,1,1.642-6.1,11.47,11.47,0,0,1,4.637-4.091,16.758,16.758,0,0,1,6.912-1.675,24.984,24.984,0,0,1,8.323,1.154,29.649,29.649,0,0,1,5.731,2.746Z" transform="translate(-5093.006 -4563.182)"/><path d="M5291.914,4600.24a16.277,16.277,0,0,1-2.563,1.482,24.085,24.085,0,0,1-4.579,1.647,22.056,22.056,0,0,1-5.99.659,24.849,24.849,0,0,1-8.957-1.73,19.593,19.593,0,0,1-6.681-4.42,19.291,19.291,0,0,1-4.176-6.425,20.768,20.768,0,0,1-1.44-7.743,22.234,22.234,0,0,1,2.592-10.873,18.956,18.956,0,0,1,7.229-7.413,21.132,21.132,0,0,1,10.8-2.691,23.781,23.781,0,0,1,7.545,1.1,26.76,26.76,0,0,1,5.357,2.362l-3.283,7.523a24.377,24.377,0,0,0-3.831-2.169,12.779,12.779,0,0,0-5.5-1.125,11.362,11.362,0,0,0-6.019,1.7,13,13,0,0,0-4.493,4.585,12.676,12.676,0,0,0-1.7,6.563,14.393,14.393,0,0,0,1.556,6.837,11.222,11.222,0,0,0,4.435,4.585,13.343,13.343,0,0,0,6.739,1.647,14.645,14.645,0,0,0,5.818-1.043,13.391,13.391,0,0,0,3.687-2.2Z" transform="translate(-5167.92 -4562.733)"/><path d="M5072.122,4563h-1.59l-18.559,40.769h8.237l3.456-7.908h14.054l3.283,7.908h9.676Zm-5.519,26.162,4.263-9.83,4.089,9.83Z" transform="translate(-5029.87 -4562.913)"/></g></g></svg>