<svg xmlns="http://www.w3.org/2000/svg" width="43" height="10" viewBox="0 0 43 10"><defs><style>.a{fill:#1de9b6;}.b{fill:#212121;font-size:6px;font-family:Roboto-Medium, Roboto;font-weight:500;}</style></defs><g transform="translate(-217 -427)"><path class="a" d="M1626.866,608h-34.349a3.213,3.213,0,0,0-2.045.739l-3.737,3.079a1.542,1.542,0,0,0,0,2.363l3.737,3.079a3.215,3.215,0,0,0,2.045.739h34.349a2.352,2.352,0,0,0,2.316-2.386v-5.228A2.352,2.352,0,0,0,1626.866,608Zm-37.116,5.833a.834.834,0,1,1,.809-.833A.821.821,0,0,1,1589.75,613.833Z" transform="translate(-1369.182 -181)"/><text class="b" transform="translate(254 434)"><tspan x="-27.073" y="0">Disbursed</tspan></text></g></svg>