<svg xmlns="http://www.w3.org/2000/svg" width="39" height="10" viewBox="0 0 39 10"><defs><style>.a{fill:#0088fc;}.b{fill:#fff;font-size:6px;font-family:Roboto-Medium, Roboto;font-weight:500;}</style></defs><g transform="translate(-221 -278)"><path class="a" d="M1622.913,608h-30.524a3.11,3.11,0,0,0-2,.739l-3.662,3.079a1.562,1.562,0,0,0,0,2.363l3.662,3.079a3.112,3.112,0,0,0,2,.739h30.524a2.33,2.33,0,0,0,2.27-2.386v-5.228A2.33,2.33,0,0,0,1622.913,608Zm-33.235,5.833a.834.834,0,1,1,.793-.833A.814.814,0,0,1,1589.677,613.833Z" transform="translate(-1365.182 -330)"/><text class="b" transform="translate(254 285)"><tspan x="-23.625" y="0">Sanction</tspan></text></g></svg>