<svg xmlns="http://www.w3.org/2000/svg" width="34" height="10" viewBox="0 0 34 10"><defs><style>.a{fill:#f15a24;}.b{fill:#fff;font-size:6px;font-family:Roboto-Medium, Roboto;font-weight:500;}</style></defs><g transform="translate(-226 -373)"><path class="a" d="M1617.867,608h-25.354a3.21,3.21,0,0,0-2.044.739l-3.735,3.079a1.542,1.542,0,0,0,0,2.363l3.735,3.079a3.212,3.212,0,0,0,2.044.739h25.354a2.352,2.352,0,0,0,2.315-2.386v-5.228A2.352,2.352,0,0,0,1617.867,608Zm-28.119,5.833a.834.834,0,1,1,.809-.833A.821.821,0,0,1,1589.748,613.833Z" transform="translate(-1360.182 -235)"/><text class="b" transform="translate(254 380)"><tspan x="-18.568" y="0">Closed</tspan></text></g></svg>