<svg xmlns="http://www.w3.org/2000/svg" width="32" height="10" viewBox="0 0 32 10"><defs><style>.a{fill:#00b6ff;}.b{fill:#fff;stroke:rgba(0,0,0,0);font-size:6px;font-family:Roboto-Medium, Roboto;font-weight:500;}</style></defs><g transform="translate(-228 -84)"><path class="a" d="M1615.821,608h-23.184a3.313,3.313,0,0,0-2.085.739l-3.809,3.079a1.523,1.523,0,0,0,0,2.363l3.809,3.079a3.315,3.315,0,0,0,2.085.739h23.184a2.374,2.374,0,0,0,2.361-2.386v-5.228A2.374,2.374,0,0,0,1615.821,608Zm-26,5.833a.833.833,0,1,1,.825-.833A.829.829,0,0,1,1589.818,613.833Z" transform="translate(-1358.182 -524)"/><text class="b" transform="translate(253 91)"><tspan x="-13.099" y="0">Lead</tspan></text></g></svg>