<svg xmlns="http://www.w3.org/2000/svg" width="32" height="10" viewBox="0 0 32 10"><defs><style>.a{fill:#a0f;}.b{fill:#fff;font-size:6px;font-family:Roboto-Medium, Roboto;font-weight:500;}</style></defs><g transform="translate(-228 -168)"><path class="a" d="M1615.867,608h-23.355a3.21,3.21,0,0,0-2.044.739l-3.735,3.079a1.542,1.542,0,0,0,0,2.363l3.735,3.079a3.212,3.212,0,0,0,2.044.739h23.355a2.351,2.351,0,0,0,2.315-2.386v-5.228A2.351,2.351,0,0,0,1615.867,608Zm-26.12,5.833a.834.834,0,1,1,.809-.833A.821.821,0,0,1,1589.747,613.833Z" transform="translate(-1358.182 -440)"/><text class="b" transform="translate(252 175)"><tspan x="-11.646" y="0">OSV</tspan></text></g></svg>